# Blender 4.0.2
# www.blender.org
mtllib B0by_KeyBoard.mtl
o B0by_KeyBoard
v -0.075000 -0.010000 0.200000
v -0.062992 0.007881 0.189494
v -0.075000 -0.010000 -0.200000
v -0.062992 0.007881 -0.189494
v 0.075000 -0.010000 0.200000
v 0.062992 0.007881 0.189494
v 0.075000 -0.010000 -0.200000
v 0.062992 0.007881 -0.189494
vn -0.8302 0.5575 -0.0000
vn -0.0000 0.5066 -0.8622
vn 0.8302 0.5575 -0.0000
vn -0.0000 0.5066 0.8622
vn -0.0000 -1.0000 -0.0000
vn -0.0000 1.0000 -0.0000
vt 0.402106 0.975547
vt 0.350892 0.950566
vt 0.350892 0.049434
vt 0.402106 0.024453
vt 0.379444 0.000122
vt 0.051335 0.049434
vt 0.022784 0.000122
vt 0.000122 0.024453
vt 0.051335 0.950566
vt 0.000122 0.975547
vt 0.022784 0.999878
vt 0.379444 0.999878
vt 0.402349 0.000122
vt 0.759009 0.000122
vt 0.759009 0.951215
vt 0.402349 0.951215
s 0
f 1/1/1 2/2/1 4/3/1 3/4/1
f 3/5/2 4/3/2 8/6/2 7/7/2
f 7/8/3 8/6/3 6/9/3 5/10/3
f 5/11/4 6/9/4 2/2/4 1/12/4
f 3/13/5 7/14/5 5/15/5 1/16/5
f 8/6/6 4/3/6 2/2/6 6/9/6
